<svg id="Layer_5" enable-background="new 0 0 64 64" height="512" viewBox="0 0 64 64" width="512" xmlns="http://www.w3.org/2000/svg"><g><path d="m14 34c0 3.859 3.14 7 7 7h24c3.86 0 7-3.141 7-7s-3.14-7-7-7c-.389 0-.778.033-1.164.1-.915-5.752-5.899-10.1-11.836-10.1-5.958 0-10.902 4.263-11.837 10.05-3.467.415-6.163 3.374-6.163 6.95zm6.991-4.999h.002l.966.056.087-.964c.467-5.184 4.746-9.093 9.954-9.093 5.286 0 9.665 4.137 9.969 9.418l.077 1.337 1.26-.453c.556-.2 1.126-.302 1.694-.302 2.757 0 5 2.243 5 5s-2.243 5-5 5h-24c-2.757 0-5-2.243-5-5 0-2.756 2.242-4.999 4.991-4.999z"/><path d="m32 23v-2c-4.411 0-8 3.589-8 8h2c0-3.309 2.691-6 6-6z"/><path d="m29 34c0 1.654 1.346 3 3 3s3-1.346 3-3-1.346-3-3-3-3 1.346-3 3zm4 0c0 .552-.449 1-1 1s-1-.448-1-1 .449-1 1-1 1 .448 1 1z"/><path d="m24 37c1.654 0 3-1.346 3-3s-1.346-3-3-3-3 1.346-3 3 1.346 3 3 3zm0-4c.551 0 1 .448 1 1s-.449 1-1 1-1-.448-1-1 .449-1 1-1z"/><path d="m40 37c1.654 0 3-1.346 3-3s-1.346-3-3-3-3 1.346-3 3 1.346 3 3 3zm0-4c.551 0 1 .448 1 1s-.449 1-1 1-1-.448-1-1 .449-1 1-1z"/><path d="m38.364 9.636 1.414-1.414c-4.289-4.289-11.268-4.289-15.557 0l1.414 1.414c3.511-3.51 9.219-3.51 12.729 0z"/><path d="m36.95 11.051c-1.323-1.322-3.08-2.051-4.95-2.051s-3.627.729-4.95 2.051l1.414 1.414c.945-.944 2.201-1.465 3.536-1.465s2.591.521 3.536 1.465z"/><path d="m29.878 13.879 1.415 1.414c.377-.379 1.036-.379 1.413 0l1.415-1.414c-1.133-1.133-3.109-1.133-4.243 0z"/><path d="m24.222 49.222 1.414 1.414c3.51-3.51 9.219-3.51 12.729 0l1.414-1.414c-4.29-4.289-11.268-4.289-15.557 0z"/><path d="m27.05 52.051 1.414 1.414c.945-.944 2.201-1.465 3.536-1.465s2.591.521 3.536 1.465l1.414-1.414c-1.323-1.322-3.08-2.051-4.95-2.051s-3.627.729-4.95 2.051z"/><path d="m29.878 54.879 1.415 1.414c.377-.379 1.036-.379 1.413 0l1.415-1.414c-1.133-1.133-3.109-1.133-4.243 0z"/><path d="m1.222 26.222 1.414 1.414c3.51-3.51 9.219-3.51 12.729 0l1.414-1.414c-4.29-4.289-11.268-4.289-15.557 0z"/><path d="m13.95 29.051c-1.323-1.322-3.08-2.051-4.95-2.051s-3.627.729-4.95 2.051l1.414 1.414c.945-.944 2.201-1.465 3.536-1.465s2.591.521 3.536 1.465z"/><path d="m6.878 31.879 1.415 1.414c.377-.379 1.036-.379 1.413 0l1.415-1.414c-1.133-1.133-3.109-1.133-4.243 0z"/><path d="m62.778 26.222c-4.289-4.289-11.268-4.289-15.557 0l1.414 1.414c3.51-3.51 9.219-3.51 12.729 0z"/><path d="m59.95 29.051c-1.323-1.322-3.08-2.051-4.95-2.051s-3.627.729-4.95 2.051l1.414 1.414c.945-.944 2.201-1.465 3.536-1.465s2.591.521 3.536 1.465z"/><path d="m52.878 31.879 1.415 1.414c.377-.379 1.036-.379 1.413 0l1.415-1.414c-1.133-1.133-3.109-1.133-4.243 0z"/><path d="m60 1h-14c-1.654 0-3 1.346-3 3v10c0 1.654 1.346 3 3 3h3v2h-2v2h12v-2h-2v-2h3c1.654 0 3-1.346 3-3v-10c0-1.654-1.346-3-3-3zm-14 2h14c.551 0 1 .448 1 1v7h-16v-7c0-.552.449-1 1-1zm9 16h-4v-2h4zm5-4h-14c-.551 0-1-.448-1-1v-1h16v1c0 .552-.449 1-1 1z"/><path d="m4 21h8c1.654 0 3-1.346 3-3v-14c0-1.654-1.346-3-3-3h-8c-1.654 0-3 1.346-3 3v14c0 1.654 1.346 3 3 3zm8-2h-8c-.551 0-1-.448-1-1v-1h10v1c0 .552-.449 1-1 1zm-9-4v-8h10v8zm1-12h8c.551 0 1 .448 1 1v1h-10v-1c0-.552.449-1 1-1z"/><path d="m60 43h-12c-1.654 0-3 1.346-3 3v2c0 .771.301 1.468.78 2-.48.532-.78 1.229-.78 2v2c0 .771.301 1.468.78 2-.48.532-.78 1.229-.78 2v2c0 1.654 1.346 3 3 3h12c1.654 0 3-1.346 3-3v-2c0-.771-.301-1.468-.78-2 .48-.532.78-1.229.78-2v-2c0-.771-.301-1.468-.78-2 .48-.532.78-1.229.78-2v-2c0-1.654-1.346-3-3-3zm-13 3c0-.552.449-1 1-1h12c.551 0 1 .448 1 1v2c0 .552-.449 1-1 1h-12c-.551 0-1-.448-1-1zm14 6v2c0 .552-.449 1-1 1h-12c-.551 0-1-.448-1-1v-2c0-.552.449-1 1-1h12c.551 0 1 .448 1 1zm0 8c0 .552-.449 1-1 1h-12c-.551 0-1-.448-1-1v-2c0-.552.449-1 1-1h12c.551 0 1 .448 1 1z"/><path d="m23 57v-11c0-1.654-1.346-3-3-3h-14c-1.654 0-3 1.346-3 3v11c-1.103 0-2 .897-2 2 0 2.206 1.794 4 4 4h16c2.206 0 4-1.794 4-4 0-1.103-.897-2-2-2zm-18-11c0-.552.449-1 1-1h14c.551 0 1 .448 1 1v11h-16zm16 15h-16c-1.103 0-2-.897-2-2h20c0 1.103-.897 2-2 2z"/><path d="m7 55h12v-8h-12zm2-6h8v4h-8z"/></g></svg>